<?xml version="1.0" encoding="UTF-8"?>
<svg id="_레이어_2" data-name="레이어 2" xmlns="http://www.w3.org/2000/svg" viewBox="0 0 702.81 565.74">
  <defs>
    <style>
      .cls-1 {
        fill: #411a02;
      }

      .cls-2, .cls-3 {
        fill: #e99b39;
      }

      .cls-4, .cls-5, .cls-6 {
        fill: #feb44f;
      }

      .cls-7 {
        fill: #fff;
      }

      .cls-8, .cls-3, .cls-9, .cls-5, .cls-10, .cls-6 {
        isolation: isolate;
      }

      .cls-8, .cls-3, .cls-5, .cls-10, .cls-6 {
        opacity: 1;
      }

      .cls-9 {
        opacity: .99;
      }

      .cls-9, .cls-5, .cls-6 {
        stroke: #411a02;
      }

      .cls-9, .cls-11 {
        fill: #6d3d06;
      }

      .cls-9, .cls-6 {
        stroke-width: 2px;
      }

      .cls-10 {
        fill: #fecd81;
      }
    </style>
  </defs>
  <g id="_레이어_2-2" data-name="레이어 2">
    <g>
      <g>
        <g>
          <g class="cls-8">
            <path class="cls-1" d="M336.94,82.2c.26,0,.53.12.8.42,4.98,6.93,11.48,20.82,15.38,30.02,2.61,6.28,5.06,12.59,6.59,19.11,1.43,5.81.87,9.66-1.4,15.18-4.36,11.36-9.37,23.08-14.12,34.27-3.09,7.08-5.45,13.03-8.27,18.96-5.68,9.27-10.48,29.72-1.76,46.73,1.38,2.91,2.87,4.73,3.78,7.59.83,2.92.61,6.78-.95,10.6-2.07,4.96-6.71,11.13-10.33,15.07-9.75,10.61-19.37,20.62-25.3,25.23-.47.37-.81.55-1.09.55-.58,0-.93-.78-1.78-2.3-1.35-2.74-3.1-6.4-4.5-9.35-2.65-5.39-4.33-8.11-1.41-13.56,4.86-10.46,6.53-12.39,5.02-24.32-.57-7.26-5.58-15.28-5.93-22.45-.59-4.54,2.89-8.95,5.77-12.58,2.44-3.23,5.27-6.93,7.61-10.06,1.75-2.28,2.71-3.93,3.53-6.53,1.96-5.75,7.18-21.16,10.13-29.83,1.13-4.05,3.12-6.31,1.14-9.83-4.15-8.57-14.23-25.92-17.24-33.58v-.07c-.02-.85.52-1.64,1.04-2.43,5.01-7.44,26.5-39.29,31.69-45.67.48-.61,1.03-1.18,1.59-1.18M336.94,65.2c-3.32,0-9.64.99-14.87,7.56-3.9,4.83-14.84,20.57-32.51,46.79l-.07.1-.06.1-.06.1c-1.07,1.63-3.9,5.94-3.75,12.07v.24s.02.24.02.24v.07s.15,2.75.15,2.75l1.01,2.56c2.2,5.6,6.59,13.75,11.24,22.37,1.72,3.19,3.38,6.26,4.73,8.86-.09.28-.18.58-.27.88l-3.87,11.41c-2.41,7.11-4.9,14.45-6.12,18.03l-.06.17-.06.17c-.08.26-.13.36-.13.36h0s-.14.24-.69.96l-.06.08-.06.08c-1.4,1.87-2.98,3.96-4.55,6.02-.99,1.3-1.97,2.59-2.89,3.82-3.74,4.7-10.4,13.23-9.28,24.43.4,5.94,2.26,11.14,3.92,15.74.81,2.24,1.91,5.31,2.01,6.58l.03.41.05.41c.5,3.94.44,5.55.31,6.21-.21,1.01-1.23,3.18-2.52,5.91-.37.79-.77,1.62-1.18,2.52-6.51,12.62-1.83,22.08.98,27.76l.37.76c1.49,3.13,3.18,6.68,4.55,9.45l.19.38.21.37.24.43c.53.96,1.18,2.15,2.18,3.46,3.46,4.53,8.64,7.14,14.21,7.14,4.12,0,8-1.39,11.52-4.13,5.9-4.59,14.34-12.96,27.38-27.15,2.21-2.41,9.72-10.96,13.5-20.03l.02-.06.02-.06c2.93-7.18,3.49-14.87,1.57-21.66l-.07-.26-.08-.26c-1.1-3.48-2.55-6.02-3.61-7.87-.42-.73-.75-1.31-1-1.85l-.11-.24-.12-.24c-5.57-10.88-2.02-24.97,1.12-30.1l.47-.77.39-.82c1.99-4.18,3.71-8.25,5.53-12.55.94-2.22,1.91-4.51,2.96-6.91l.03-.08.03-.08.89-2.1c4.52-10.65,9.2-21.66,13.38-32.54,3.7-9.07,4.32-16.45,2.13-25.42-1.82-7.74-4.64-14.99-7.42-21.67l-.02-.06-.02-.06c-2.91-6.86-10.42-23.83-17.23-33.3l-.57-.79-.65-.72c-3.46-3.81-8.34-5.99-13.39-5.99h0Z"/>
          </g>
          <g class="cls-8">
            <path class="cls-1" d="M276.46,17c17.81,0,34.31,1.36,48.15,3.27,2.87.4,30.59,4.86-.87,47.79-.08.11-.14.23-.22.35-9.02,14.39-20.65,28.64-30.08,43.1-14.47,22.42-5.25,34.72,4.51,55.83,5.56,11.7,3.9,17.98-4.13,28.04-9.51,12.49-24,23.2-23.36,39.61.04,5.88,4.91,15.18,6.12,20.68,1.06,4.59,1.96,9.98-.33,13.86-10.42,20.89-41.76,39.03-62.44,49.15-26.47,12.59-56.45,24.37-84.19,32.38-14.73,4.19-28.57,7.96-43.84,9.69-3.61.33-7.65.53-11.84.53-16.43,0-35.32-3.17-41.06-14.58-42.1-83.58.12-234.74,118.67-300.16,38.33-22.71,84.95-29.54,124.9-29.54M276.46,0c-36.3,0-88.87,5.52-133.34,31.78-30.25,16.73-56.91,39.21-79.25,66.81-20.66,25.52-36.77,54.29-47.9,85.51C5.41,213.74-.12,244.76,0,273.81c.12,29.93,6.24,57.78,17.71,80.54,7.89,15.66,27.33,23.93,56.24,23.93,4.46,0,8.96-.2,13.37-.6l.18-.02.18-.02c16.28-1.83,30.73-5.72,46.59-10.23h.03s.03-.02.03-.02c27.31-7.89,58.13-19.74,86.78-33.36l.08-.04.08-.04c25.1-12.28,57.53-32,69.96-56.4,5.51-9.95,3.02-20.87,1.91-25.65-.73-3.28-2-6.64-3.22-9.88-.84-2.24-2.24-5.95-2.48-7.45v-.24c-.21-5.16,4.19-10.49,11.46-18.66,2.76-3.1,5.62-6.31,8.31-9.83,4.4-5.52,9.06-12.33,10.53-21.04,1.71-10.14-1.68-18.92-4.4-24.67-1.17-2.53-2.3-4.87-3.4-7.14-7.77-16.09-9.86-20.43-2.25-32.23,4.14-6.34,8.72-12.63,13.56-19.3,5.62-7.73,11.44-15.72,16.56-23.87,16.43-22.58,21.43-40.62,15.29-55.12-4.34-10.25-14.13-17.37-26.18-19.04-16.24-2.25-33.69-3.43-50.48-3.43h0Z"/>
          </g>
          <g class="cls-8">
            <path class="cls-1" d="M275.19,299.82c.85,0,1.68.4,2.2,1.14,27.32,39.26-42.45,137.59-49.48,144.76-3.05,3.11-6.77,4-10.03,4-4.41,0-7.99-1.63-7.99-1.63,0,0-79.25-27.06-72.71-31.52,43.43-29.64,40.57-63.04,48.77-66.18,21.72-8.31,76.4-42.88,87.78-50.14.45-.29.96-.43,1.46-.43M275.19,282.82c-3.76,0-7.43,1.07-10.6,3.09-29.27,18.67-69.02,42.6-84.72,48.6-9.82,3.76-13.2,12.95-16.19,21.07-4.36,11.86-10.96,29.79-36.1,46.95-5.62,3.84-8.55,10.38-7.64,17.07,1.54,11.35,12.61,16.45,21.51,20.54,6.44,2.96,15.23,6.58,26.13,10.74,16.68,6.36,33,12,36.24,13.11,2.4.97,7.63,2.73,14.04,2.73,8.66,0,16.33-3.14,22.16-9.09,4.95-5.04,24.97-32.59,40.76-64.77,22.3-45.45,25.84-79.63,10.55-101.61-3.67-5.28-9.71-8.43-16.15-8.43h0Z"/>
          </g>
        </g>
        <g>
          <g class="cls-8">
            <path class="cls-11" d="M336.94,82.2c.26,0,.53.12.8.42,4.98,6.93,11.48,20.82,15.38,30.02,2.61,6.28,5.06,12.59,6.59,19.11,1.43,5.81.87,9.66-1.4,15.18-4.36,11.36-9.37,23.08-14.12,34.27-3.09,7.08-5.45,13.03-8.27,18.96-5.68,9.27-10.48,29.72-1.76,46.73,1.38,2.91,2.87,4.73,3.78,7.59.83,2.92.61,6.78-.95,10.6-2.07,4.96-6.71,11.13-10.33,15.07-9.75,10.61-19.37,20.62-25.3,25.23-.47.37-.81.55-1.09.55-.58,0-.93-.78-1.78-2.3-1.35-2.74-3.1-6.4-4.5-9.35-2.65-5.39-4.33-8.11-1.41-13.56,4.86-10.46,6.53-12.39,5.02-24.32-.57-7.26-5.58-15.28-5.93-22.45-.59-4.54,2.89-8.95,5.77-12.58,2.44-3.23,5.27-6.93,7.61-10.06,1.75-2.28,2.71-3.93,3.53-6.53,1.96-5.75,7.18-21.16,10.13-29.83,1.13-4.05,3.12-6.31,1.14-9.83-4.15-8.57-14.23-25.92-17.24-33.58v-.07c-.02-.85.52-1.64,1.04-2.43,5.01-7.44,26.5-39.29,31.69-45.67.48-.61,1.03-1.18,1.59-1.18M336.94,67.2c-2.96,0-8.6.89-13.31,6.81-4.81,5.95-20.26,28.63-32.41,46.66l-.06.09-.06.09-.07.1c-1.06,1.62-3.56,5.42-3.42,10.92v.21s.02.21.02.21v.07s.13,2.42.13,2.42l.89,2.26c2.15,5.49,6.72,13.96,11.14,22.15,1.89,3.51,3.71,6.88,5.13,9.64-.17.51-.35,1.06-.53,1.66l-3.87,11.42c-2.42,7.12-4.91,14.47-6.13,18.06l-.05.15-.05.15c-.2.62-.24.77-1.14,1.94l-.05.07-.05.07c-1.41,1.88-2.99,3.97-4.56,6.03-.99,1.3-1.97,2.6-2.9,3.83-3.79,4.77-9.93,12.62-8.86,23.05.37,5.67,2.19,10.74,3.81,15.23.94,2.61,2,5.56,2.12,7.1l.03.36.05.36q.82,6.44-2.39,13.23c-.37.79-.77,1.64-1.2,2.54-6.08,11.74-1.84,20.3.98,25.99l.38.77c1.49,3.12,3.18,6.67,4.55,9.44l.16.33.18.33.25.44c.5.9,1.11,2.02,2.02,3.21,3.08,4.04,7.68,6.35,12.62,6.35,3.67,0,7.13-1.25,10.3-3.71,5.81-4.52,14.18-12.82,27.14-26.92,4.44-4.83,10.22-12.48,13.13-19.44l.02-.05.02-.05c2.76-6.77,3.3-13.99,1.5-20.35l-.07-.23-.07-.23c-1.04-3.28-2.43-5.71-3.44-7.49-.44-.77-.79-1.38-1.07-1.98l-.1-.21-.11-.21c-5.94-11.58-2.15-26.59,1.2-32.05l.42-.68.34-.72c1.97-4.15,3.68-8.19,5.5-12.47.94-2.22,1.92-4.52,2.97-6.93l.03-.07.03-.07.89-2.11c4.52-10.64,9.19-21.64,13.36-32.49,3.53-8.65,4.13-15.69,2.05-24.21-1.79-7.6-4.58-14.76-7.32-21.37l-.02-.05-.02-.05c-2.25-5.3-10.13-23.35-17.01-32.91l-.5-.69-.57-.63c-3.08-3.39-7.42-5.34-11.91-5.34h0Z"/>
          </g>
          <g class="cls-8">
            <path class="cls-11" d="M276.46,17c17.81,0,34.31,1.36,48.15,3.27,2.87.4,30.59,4.86-.87,47.79-.08.11-.14.23-.22.35-9.02,14.39-20.65,28.64-30.08,43.1-14.47,22.42-5.25,34.72,4.51,55.83,5.56,11.7,3.9,17.98-4.13,28.04-9.51,12.49-24,23.2-23.36,39.61.04,5.88,4.91,15.18,6.12,20.68,1.06,4.59,1.96,9.98-.33,13.86-10.42,20.89-41.76,39.03-62.44,49.15-26.47,12.59-56.45,24.37-84.19,32.38-14.73,4.19-28.57,7.96-43.84,9.69-3.61.33-7.65.53-11.84.53-16.43,0-35.32-3.17-41.06-14.58-42.1-83.58.12-234.74,118.67-300.16,38.33-22.71,84.95-29.54,124.9-29.54M276.46,2c-36.06,0-88.26,5.47-132.35,31.52-30.03,16.61-56.5,38.92-78.69,66.33-20.51,25.35-36.52,53.92-47.57,84.93-10.49,29.42-15.97,60.21-15.85,89.03.12,29.63,6.17,57.17,17.49,79.65,7.52,14.94,26.35,22.83,54.46,22.83,4.4,0,8.84-.2,13.19-.6h.16s.16-.03.16-.03c16.13-1.82,30.49-5.68,46.26-10.16h.03s.03-.02.03-.02c27.21-7.86,57.92-19.67,86.47-33.25l.07-.04.07-.04c24.83-12.15,56.91-31.62,69.07-55.54,5.16-9.3,2.78-19.71,1.73-24.26-.7-3.15-1.89-6.29-3.14-9.62-.91-2.42-2.43-6.45-2.61-7.99v-.1s-.01-.24-.01-.24c-.23-5.91,4.37-11.53,11.97-20.07,2.74-3.08,5.57-6.26,8.23-9.73,10-12.56,14.8-24.81,5.89-43.63-1.16-2.51-2.29-4.85-3.38-7.11-7.94-16.46-10.35-21.44-2.13-34.19,4.17-6.39,8.76-12.7,13.63-19.38,5.62-7.72,11.43-15.7,16.52-23.81,16.02-22,20.96-39.41,15.11-53.22-4.06-9.6-13.26-16.27-24.61-17.84-16.15-2.23-33.51-3.41-50.2-3.41h0Z"/>
          </g>
          <g class="cls-8">
            <path class="cls-11" d="M275.19,299.82c.85,0,1.68.4,2.2,1.14,27.32,39.26-42.45,137.59-49.48,144.76-3.05,3.11-6.77,4-10.03,4-4.41,0-7.99-1.63-7.99-1.63,0,0-79.25-27.06-72.71-31.52,43.43-29.64,40.57-63.04,48.77-66.18,21.72-8.31,76.4-42.88,87.78-50.14.45-.29.96-.43,1.46-.43M275.19,284.82c-3.38,0-6.68.96-9.53,2.78-29.35,18.72-69.24,42.72-85.08,48.78-8.97,3.43-12.05,11.8-15.03,19.89-4.45,12.1-11.18,30.39-36.85,47.91-4.99,3.41-7.59,9.21-6.78,15.15,1.29,9.51,9.61,14.05,20.36,19,6.4,2.95,15.15,6.54,26.01,10.68,16.73,6.38,33.1,12.03,36.22,13.11,2.23.91,7.21,2.61,13.35,2.61,8.11,0,15.28-2.94,20.74-8.49,5.3-5.4,25.44-33.78,40.39-64.25,21.95-44.74,25.55-78.25,10.7-99.59-3.3-4.74-8.73-7.57-14.51-7.57h0Z"/>
          </g>
        </g>
        <g>
          <g class="cls-8">
            <path class="cls-2" d="M300.28,306.94c-1.1,0-1.61-.92-2.37-2.31l-.28-.51c-1.33-2.7-2.97-6.12-4.53-9.4l-.43-.86c-2.38-4.82-3.96-8-.96-13.6.44-.96.88-1.88,1.29-2.75,3.8-8.05,4.95-10.48,3.62-20.97-.27-3.46-1.61-7.19-2.91-10.8-1.4-3.89-2.84-7.92-3.03-11.73-.64-4.91,3.03-9.53,5.99-13.25.95-1.26,1.97-2.61,3-3.96,1.58-2.08,3.17-4.18,4.59-6.07,1.79-2.34,2.64-3.91,3.38-6.23,1.25-3.68,3.83-11.27,6.29-18.53l3.84-11.32c.28-1.03.65-1.99.97-2.84.9-2.39,1.49-3.97.25-6.18-1.65-3.41-4.19-8.1-6.87-13.08-4.22-7.83-8.59-15.92-10.43-20.62l-.06-.15v-.26c-.04-1.12.57-2.06,1.12-2.89l.08-.12c9.88-14.65,27.12-40.06,31.75-45.75.59-.76,1.35-1.55,2.37-1.55.39,0,.98.13,1.54.75l.07.09c4.79,6.66,11.14,19.98,15.49,30.21,2.92,7.03,5.17,12.99,6.64,19.27,1.41,5.75,1.04,9.73-1.45,15.79-4.09,10.66-8.74,21.62-13.24,32.21l-.88,2.07c-1.08,2.48-2.07,4.82-3.02,7.06-1.76,4.15-3.42,8.06-5.26,11.94l-.05.09c-5.3,8.65-10.45,28.71-1.72,45.75.53,1.11,1.06,2.05,1.58,2.96.86,1.5,1.67,2.93,2.26,4.79.95,3.35.59,7.45-.98,11.29-2.21,5.31-7.05,11.59-10.52,15.37-12.24,13.32-20.32,21.38-25.42,25.35-.51.39-1.06.76-1.7.76h0Z"/>
            <path class="cls-1" d="M336.94,82.2c.26,0,.53.12.8.42,4.98,6.93,11.48,20.82,15.38,30.02,2.61,6.28,5.06,12.59,6.59,19.11,1.43,5.81.87,9.66-1.4,15.18-4.36,11.36-9.37,23.08-14.12,34.27-3.09,7.08-5.45,13.03-8.27,18.96-5.68,9.27-10.48,29.72-1.76,46.73,1.38,2.91,2.87,4.73,3.78,7.59.83,2.92.61,6.78-.95,10.6-2.07,4.96-6.71,11.13-10.33,15.07-9.75,10.61-19.37,20.62-25.3,25.23-.47.37-.81.55-1.09.55-.58,0-.93-.78-1.78-2.3-1.35-2.74-3.1-6.4-4.5-9.35-2.65-5.39-4.33-8.11-1.41-13.56,4.86-10.46,6.53-12.39,5.02-24.32-.57-7.26-5.58-15.28-5.93-22.45-.59-4.54,2.89-8.95,5.77-12.58,2.44-3.23,5.27-6.93,7.61-10.06,1.75-2.28,2.71-3.93,3.53-6.53,1.96-5.75,7.18-21.16,10.13-29.83,1.13-4.05,3.12-6.31,1.14-9.83-4.15-8.57-14.23-25.92-17.24-33.58v-.07c-.02-.85.52-1.64,1.04-2.43,5.01-7.44,26.5-39.29,31.69-45.67.48-.61,1.03-1.18,1.59-1.18M336.94,80.2c-1.64,0-2.71,1.36-3.17,1.95-4.63,5.69-21.89,31.13-31.77,45.78l-.09.14c-.59.9-1.33,2.03-1.29,3.46v.03s0,.03,0,.03v.07s.02.32.02.32l.12.3c1.87,4.76,6.25,12.88,10.48,20.73,2.68,4.96,5.21,9.65,6.82,12.98l.03.06.03.05c.98,1.74.63,2.83-.31,5.34-.32.86-.69,1.82-1,2.92l-3.98,11.71c-2.42,7.13-4.91,14.48-6.13,18.07-.72,2.27-1.5,3.71-3.23,5.96-1.43,1.92-3.03,4.02-4.62,6.11-1.02,1.34-2.03,2.68-2.98,3.94-3.05,3.84-6.84,8.61-6.18,13.98.21,3.94,1.67,8,3.08,11.94,1.27,3.54,2.59,7.21,2.85,10.49v.05s0,.05,0,.05c1.3,10.2.27,12.37-3.53,20.42-.4.85-.83,1.77-1.29,2.76-3.21,6.02-1.45,9.57.97,14.46l.43.87c1.58,3.31,3.22,6.75,4.5,9.35l.02.04.02.04.28.5c.8,1.45,1.55,2.83,3.25,2.83.94,0,1.7-.49,2.31-.97,5.15-4,13.26-12.09,25.54-25.46,3.52-3.84,8.44-10.24,10.7-15.65,1.65-4.05,2.03-8.39,1.03-11.92v-.03s-.02-.03-.02-.03c-.62-1.96-1.5-3.5-2.35-4.98-.51-.89-1.03-1.81-1.53-2.86v-.03s-.03-.03-.03-.03c-8.54-16.67-3.5-36.31,1.69-44.77l.06-.09.05-.1c1.85-3.9,3.51-7.82,5.27-11.97.96-2.25,1.94-4.58,3.02-7.05l.9-2.12c4.5-10.59,9.15-21.54,13.25-32.23,2.54-6.16,2.93-10.46,1.48-16.38-1.48-6.32-3.74-12.33-6.68-19.4-4.37-10.3-10.76-23.68-15.6-30.42l-.07-.09-.08-.08c-.81-.89-1.69-1.08-2.28-1.08h0Z"/>
          </g>
          <g class="cls-8">
            <path class="cls-4" d="M73.95,362.28c-12.82,0-35.33-1.96-41.96-15.13-20.96-41.61-21.32-100.56-.96-157.68,22.2-62.27,64.83-113.35,120.03-143.81,41.38-24.51,91.03-29.66,125.39-29.66,16.06,0,32.76,1.13,48.29,3.28,2.4.33,10.49,1.99,13.64,9.43,3.75,8.86-.91,22.3-13.84,39.94-.03.05-.06.1-.09.15l-.08.14c-4.85,7.74-10.54,15.55-16.04,23.11-4.76,6.54-9.68,13.31-14.05,20-12.5,19.37-7.02,30.72,1.27,47.89,1.08,2.23,2.19,4.54,3.32,6.98,6.02,12.67,3.42,19.47-4.26,29.08-2.34,3.08-5.03,6.1-7.64,9.02-8.22,9.23-15.97,17.94-15.51,29.93.03,3.46,1.88,8.38,3.51,12.71,1.08,2.88,2.11,5.6,2.59,7.79,1.19,5.15,1.97,10.49-.44,14.58-10.77,21.61-44.01,40.32-62.86,49.54-27.9,13.27-57.85,24.79-84.36,32.44-15.16,4.31-28.94,8.02-44.01,9.72-3.95.36-7.97.54-11.95.54h0Z"/>
            <path class="cls-1" d="M276.46,17c17.81,0,34.31,1.36,48.15,3.27,2.87.4,30.59,4.86-.87,47.79-.08.11-.14.23-.22.35-9.02,14.39-20.65,28.64-30.08,43.1-14.47,22.42-5.25,34.72,4.51,55.83,5.56,11.7,3.9,17.98-4.13,28.04-9.51,12.49-24,23.2-23.36,39.61.04,5.88,4.91,15.18,6.12,20.68,1.06,4.59,1.96,9.98-.33,13.86-10.42,20.89-41.76,39.03-62.44,49.15-26.47,12.59-56.45,24.37-84.19,32.38-14.73,4.19-28.57,7.96-43.84,9.69-3.61.33-7.65.53-11.84.53-16.43,0-35.32-3.17-41.06-14.58-42.1-83.58.12-234.74,118.67-300.16,38.33-22.71,84.95-29.54,124.9-29.54M276.46,15c-34.48,0-84.31,5.17-125.9,29.8-28.63,15.8-53.87,37.07-75.04,63.22-19.59,24.2-34.87,51.49-45.43,81.11-20.45,57.37-20.08,116.61,1.01,158.46,6.87,13.64,29.79,15.68,42.85,15.68,4.01,0,8.05-.18,12.02-.54,15.18-1.71,29-5.43,44.21-9.75,26.56-7.67,56.57-19.21,84.51-32.5,23.16-11.33,52.92-29.19,63.34-50,2.55-4.38,1.75-9.92.52-15.26-.49-2.24-1.53-4.99-2.63-7.91-1.6-4.25-3.42-9.08-3.44-12.33v-.03s0-.03,0-.03c-.45-11.58,7.18-20.15,15.25-29.22,2.62-2.94,5.32-5.98,7.7-9.1,7.92-9.91,10.6-16.95,4.35-30.11-1.12-2.42-2.24-4.74-3.32-6.97-8.14-16.87-13.52-28.02-1.32-46.92,4.35-6.67,9.26-13.42,14.02-19.95,5.51-7.57,11.21-15.4,16.08-23.17l.1-.16.05-.08c13.14-17.93,17.84-31.7,13.94-40.91-3.35-7.92-11.88-9.68-14.42-10.03-15.57-2.15-32.32-3.29-48.42-3.29h0Z"/>
          </g>
          <g class="cls-8">
            <path class="cls-7" d="M217.88,450.71c-4.57,0-8.25-1.65-8.41-1.72-.09-.03-18.2-6.22-36.18-13.08-36.89-14.07-37.31-17.16-37.49-18.48-.09-.67.2-1.29.8-1.7,29.37-20.05,37.33-41.7,42.09-54.64,2.32-6.32,3.86-10.49,6.89-11.65,21.7-8.3,76.78-43.15,87.6-50.05.6-.38,1.29-.58,2-.58,1.21,0,2.34.59,3.02,1.57,28.07,40.32-43.55,139.87-49.59,146.03-2.8,2.85-6.41,4.3-10.74,4.3h0Z"/>
            <path class="cls-1" d="M275.19,299.82c.85,0,1.68.4,2.2,1.14,27.32,39.26-42.45,137.59-49.48,144.76-3.05,3.11-6.77,4-10.03,4-4.41,0-7.99-1.63-7.99-1.63,0,0-79.25-27.06-72.71-31.52,43.43-29.64,40.57-63.04,48.77-66.18,21.72-8.31,76.4-42.88,87.78-50.14.45-.29.96-.43,1.46-.43M275.19,297.82c-.9,0-1.78.26-2.54.74-10.81,6.89-65.83,41.7-87.42,49.96-3.45,1.32-5.05,5.66-7.47,12.24-4.72,12.83-12.61,34.29-41.72,54.16-.91.62-1.37,1.62-1.23,2.66.25,1.87.68,5,38.12,19.28,17.38,6.63,34.89,12.64,36.22,13.1.66.28,4.3,1.76,8.72,1.76s8.51-1.59,11.46-4.6c3.79-3.86,23.04-30.38,38-60.87,8.61-17.54,14.26-33.27,16.81-46.75,3.19-16.88,1.47-30.23-5.11-39.68-.87-1.25-2.31-2-3.84-2h0Z"/>
          </g>
        </g>
        <path class="cls-10" d="M337.16,28.43c-38.72-12.73-121.37,7.78-160.06,28.17-12.28,6.47-40.31,27.2-58.25,43.68C5.91,204.04,32.89,346.7,32.89,346.7c-42.1-83.58.12-234.74,118.67-300.16,55.42-32.84,128.17-32.47,173.05-26.27,0,0,4.43.55,7.8,2.86s4.09,4.14,4.78,5.37"/>
      </g>
      <g>
        <g class="cls-8">
          <path class="cls-4" d="M454.75,517.18c-12.39,0-23.64-1.26-33.46-3.75-15.12-3.44-27.81-17.98-28.93-33.18v-.12c-.27-4.4-1.95-24.19-3.9-47.09-2.8-32.88-6.28-73.79-7.2-88.69l-.03-.4v-.4c.28-8.2,5.35-16.5,12.33-20.18l.24-.13.25-.11c20.86-9.33,42.74-19.27,60.87-29.08l.19-.1c7.4-3.77,12.29-11.16,12.17-18.39-.01-2.12-.4-3.98-.9-6.33-.26-1.26-.56-2.68-.82-4.24-1.48-7.92-3.41-17.98-5.28-27.7-1.85-9.63-3.6-18.73-4.91-25.75-2.38-11.37,4.36-23.36,14.82-26.48,8.35-3.14,28.44-10.76,41.87-16.45l.42-.18c5.58-2.39,10.41-4.46,14.28-7.79,4.05-3.46,6.95-7.29,8.2-10.8l.07-.21.08-.2c1.89-4.54,6.11-13.55,11.45-24.96,3.51-7.49,7.49-15.98,11.23-24.13,5.25-13.33,12.94-20.08,22.88-20.08,7.65,0,15.72,4.36,24.67,13.32l.1.1c45.39,45.02,72.74,90.66,83.63,139.52,8.67,38.92,6.58,80.14-6.39,126-15.32,67.7-88.97,127.25-151.42,145.74-26.63,7.91-53.8,12.26-76.51,12.26h0Z"/>
          <path class="cls-1" d="M580.68,88.74c5.73,0,12.09,4.25,18.66,10.83l.09.09c95.18,94.39,96.74,180.78,75.02,257.43-14.38,64.14-85.6,121.92-145.59,139.69-22.84,6.78-49.6,11.91-74.1,11.91-11.16,0-21.85-1.06-31.48-3.52-12.02-2.68-21.63-14.57-22.44-25.54-.65-10.95-9.53-110.63-11.1-135.8.16-4.86,3.29-10.57,7.78-12.94,18.38-8.22,42.26-18.98,61.44-29.36,9.74-4.96,17-15,16.81-26.11-.03-4.25-1.12-7.5-1.85-11.9-2.92-15.65-7.57-39.38-10.22-53.64-1.46-6.76,2.59-14.96,9.16-16.75,5.17-1.94,27.69-10.42,42.51-16.7,6.21-2.66,11.94-5.06,16.93-9.35,4.93-4.22,8.83-9.23,10.67-14.39,3.08-7.42,13.45-28.97,22.66-49.03,4.12-10.59,9.27-14.91,15.06-14.91M580.68,71.74c-7.38,0-14.25,2.82-19.87,8.17-4.38,4.17-7.93,9.76-10.84,17.08-3.7,8.05-7.63,16.44-11.1,23.85-5.39,11.51-9.65,20.59-11.61,25.31l-.17.41-.15.42c-.28.78-1.5,3.59-5.7,7.18l-.02.02-.02.02c-2.88,2.48-6.94,4.22-12.08,6.42l-.41.18c-13.18,5.58-32.85,13.05-41.28,16.22-14.34,4.49-23.58,20.76-20.41,36.17,1.31,7.03,3.06,16.12,4.9,25.72,1.86,9.68,3.78,19.68,5.25,27.57.29,1.7.6,3.19.87,4.5.47,2.22.71,3.43.72,4.55v.09s0,.09,0,.09c.07,3.99-3.03,8.38-7.53,10.67l-.19.1-.19.1c-17.87,9.67-39.58,19.53-60.3,28.79l-.5.22-.48.26c-9.71,5.12-16.47,16.13-16.84,27.42l-.03.81.05.81c.93,15,4.42,55.98,7.22,88.91,1.86,21.88,3.62,42.55,3.87,46.84v.12s.02.12.02.12c.66,9.01,4.59,18.14,11.05,25.69,6.56,7.66,15.2,13.03,24.37,15.14,10.48,2.65,22.41,3.99,35.45,3.99,23.51,0,51.54-4.48,78.94-12.62,32.79-9.71,67.97-30.19,96.51-56.18,15.14-13.79,27.95-28.62,38.09-44.1,11.09-16.93,18.71-34.26,22.64-51.51,13.31-47.17,15.41-89.67,6.44-129.95-5.37-24.13-14.91-48.01-28.33-70.98-14.38-24.6-33.75-49.05-57.57-72.69l-.02-.02-.04-.04-.04-.04c-10.63-10.64-20.67-15.81-30.68-15.81h0Z"/>
        </g>
        <g class="cls-8">
          <path class="cls-4" d="M454.75,516.18c-12.31,0-23.49-1.25-33.23-3.73-14.72-3.34-27.08-17.49-28.17-32.28v-.11c-.27-4.42-1.95-24.21-3.9-47.12-2.8-32.87-6.27-73.78-7.2-88.66l-.02-.36v-.36c.27-7.86,5.11-15.8,11.79-19.32l.21-.11.22-.1c20.88-9.34,42.78-19.28,60.94-29.11l.17-.09c7.73-3.94,12.85-11.69,12.72-19.3-.01-2.21-.41-4.11-.92-6.52-.26-1.25-.56-2.66-.82-4.21-1.48-7.93-3.41-17.98-5.28-27.71-1.85-9.64-3.6-18.74-4.91-25.76-2.24-10.7,4.33-22.41,14.16-25.34,8.34-3.13,28.48-10.78,41.94-16.48l.42-.18c5.66-2.42,10.55-4.52,14.54-7.95,4.17-3.57,7.18-7.55,8.49-11.22l.06-.18.08-.18c1.88-4.52,6.1-13.52,11.44-24.92,3.52-7.5,7.5-16,11.24-24.16,5.08-12.92,12.47-19.48,21.96-19.48,7.37,0,15.21,4.26,23.96,13.02l.13.13c45.2,44.83,72.48,90.31,83.32,139,8.63,38.76,6.55,79.83-6.38,125.54-15.23,67.35-88.56,126.62-150.73,145.03-26.54,7.88-53.61,12.22-76.23,12.22h0Z"/>
          <path class="cls-11" d="M580.68,88.74c5.73,0,12.09,4.25,18.66,10.83l.09.09c95.18,94.39,96.74,180.78,75.02,257.43-14.38,64.14-85.6,121.92-145.59,139.69-22.84,6.78-49.6,11.91-74.1,11.91-11.16,0-21.85-1.06-31.48-3.52-12.02-2.68-21.63-14.57-22.44-25.54-.65-10.95-9.53-110.63-11.1-135.8.16-4.86,3.29-10.57,7.78-12.94,18.38-8.22,42.26-18.98,61.44-29.36,9.74-4.96,17-15,16.81-26.11-.03-4.25-1.12-7.5-1.85-11.9-2.92-15.65-7.57-39.38-10.22-53.64-1.46-6.76,2.59-14.96,9.16-16.75,5.17-1.94,27.69-10.42,42.51-16.7,6.21-2.66,11.94-5.06,16.93-9.35,4.93-4.22,8.83-9.23,10.67-14.39,3.08-7.42,13.45-28.97,22.66-49.03,4.12-10.59,9.27-14.91,15.06-14.91M580.68,73.74c-8.84,0-20.99,4.18-28.86,24.03-3.71,8.07-7.65,16.48-11.13,23.92-5.38,11.48-9.63,20.56-11.57,25.23l-.15.36-.13.37c-.85,2.39-3.2,5.39-6.29,8.03-3.15,2.71-7.33,4.5-12.63,6.77l-.43.18c-13.24,5.61-32.99,13.11-41.39,16.27-13.43,4.17-22.09,19.44-19.1,33.9,1.31,7.03,3.06,16.12,4.91,25.74,1.86,9.69,3.79,19.7,5.26,27.59.28,1.67.59,3.14.86,4.44.49,2.35.75,3.64.76,4.95v.08s0,.08,0,.08c.08,4.73-3.47,9.87-8.62,12.49l-.17.09-.17.09c-17.93,9.7-39.68,19.58-60.43,28.86l-.44.2-.43.23c-9.09,4.79-15.43,15.13-15.78,25.71l-.02.71.04.71c.93,14.97,4.42,55.94,7.22,88.86,1.94,22.85,3.62,42.58,3.88,46.9v.11s.01.11.01.11c.63,8.59,4.39,17.3,10.58,24.53,6.28,7.34,14.56,12.48,23.32,14.49,10.33,2.61,22.09,3.93,34.99,3.93,23.32,0,51.16-4.45,78.37-12.53,64.18-19.01,139.94-80.41,155.86-150.37,13.23-46.86,15.33-89.06,6.43-129.02-5.33-23.93-14.79-47.62-28.11-70.41-14.29-24.45-33.56-48.77-57.26-72.29l-.03-.03-.04-.04-.04-.04c-10.24-10.24-19.81-15.22-29.27-15.22h0Z"/>
        </g>
        <g class="cls-8">
          <path class="cls-4" d="M454.75,509.68c-11.81,0-22.49-1.2-31.73-3.55-11.89-2.65-22.31-14.51-23.19-26.44-.27-4.51-1.95-24.34-3.91-47.29-2.79-32.84-6.27-73.71-7.19-88.52.18-5.55,3.75-11.48,8.31-13.88,21.05-9.42,43.08-19.42,61.43-29.35,10.08-5.13,16.46-15.02,16.29-25.21-.02-2.79-.5-5.09-1.06-7.75-.27-1.26-.54-2.57-.78-4.01-1.48-7.93-3.42-18.03-5.3-27.8-1.86-9.67-3.62-18.81-4.92-25.82-1.62-7.5,3.09-16.04,9.88-17.9,8.11-3.05,28.66-10.84,42.38-16.66l.44-.19c5.9-2.53,11.47-4.91,16.22-9,5.08-4.35,8.67-9.18,10.38-13.97,1.84-4.44,6.24-13.83,11.34-24.71,3.55-7.57,7.57-16.16,11.35-24.4,3.99-10.26,9.37-15.49,15.96-15.49,5.56,0,11.89,3.64,19.37,11.12l.1.1c44.35,43.98,71.05,88.42,81.61,135.85,8.41,37.74,6.33,77.83-6.35,122.55-6.66,29.73-26.55,60.89-55.98,87.7-26.82,24.42-59.72,43.62-90.29,52.67-25.96,7.71-52.38,11.96-74.38,11.96h0Z"/>
          <path class="cls-1" d="M580.68,88.74c5.73,0,12.09,4.25,18.66,10.83l.09.09c95.18,94.39,96.74,180.78,75.02,257.43-14.38,64.14-85.6,121.92-145.59,139.69-22.84,6.78-49.6,11.91-74.1,11.91-11.16,0-21.85-1.06-31.48-3.52-12.02-2.68-21.63-14.57-22.44-25.54-.65-10.95-9.53-110.63-11.1-135.8.16-4.86,3.29-10.57,7.78-12.94,18.38-8.22,42.26-18.98,61.44-29.36,9.74-4.96,17-15,16.81-26.11-.03-4.25-1.12-7.5-1.85-11.9-2.92-15.65-7.57-39.38-10.22-53.64-1.46-6.76,2.59-14.96,9.16-16.75,5.17-1.94,27.69-10.42,42.51-16.7,6.21-2.66,11.94-5.06,16.93-9.35,4.93-4.22,8.83-9.23,10.67-14.39,3.08-7.42,13.45-28.97,22.66-49.03,4.12-10.59,9.27-14.91,15.06-14.91M580.68,86.74c-7.04,0-12.72,5.43-16.9,16.13-3.77,8.22-7.78,16.78-11.32,24.34-5.1,10.89-9.51,20.29-11.34,24.7l-.02.05-.02.05c-1.62,4.56-5.21,9.37-10.08,13.54-4.64,3.99-9.89,6.24-15.97,8.84l-.45.19c-13.69,5.8-34.11,13.54-42.34,16.64-7.34,2.06-12.24,10.93-10.5,19.05,1.31,7.01,3.06,16.14,4.92,25.8,1.88,9.76,3.82,19.86,5.3,27.81.23,1.42.51,2.74.78,4.01.55,2.61,1.02,4.86,1.04,7.53.16,9.83-6.01,19.37-15.72,24.31h-.02s-.02.02-.02.02c-18.32,9.92-40.33,19.91-61.31,29.29l-.06.03-.06.03c-4.93,2.6-8.65,8.76-8.85,14.64v.09s0,.09,0,.09c.92,14.83,4.4,55.71,7.19,88.57,1.95,22.94,3.64,42.74,3.9,47.23.91,12.35,11.66,24.61,23.97,27.37,9.32,2.37,20.07,3.57,31.95,3.57,22.1,0,48.62-4.26,74.67-12,30.7-9.09,63.75-28.37,90.68-52.89,14.2-12.94,26.19-26.81,35.64-41.23,10.19-15.56,17.13-31.37,20.65-46.99,6-21.18,9.56-40.69,10.88-59.64,1.54-22.01.05-42.73-4.54-63.35-5.04-22.61-14-45.05-26.64-66.68-13.73-23.5-32.32-46.94-55.25-69.67l-.07-.07c-7.68-7.69-14.25-11.42-20.08-11.42h0Z"/>
        </g>
        <path class="cls-3" d="M423.27,505.16c31.16,6.26,72.34,1.48,105.59-8.39,59.99-17.76,131.21-75.55,145.59-139.69,18.78-66.26,20.16-139.8-41.3-219.5,0,0,117.73,324.88-225.72,348.76l.19,8.9s5.63,7.9,15.65,9.92Z"/>
        <path class="cls-10" d="M584.86,89.43c-7.48-2.38-14.15,1.13-19.24,14.22-9.21,20.06-19.57,41.61-22.66,49.03-1.84,5.16-5.73,10.17-10.67,14.39-4.99,4.29-10.71,6.69-16.93,9.35-14.82,6.28-37.34,14.76-42.51,16.7-6.57,1.79-10.62,9.99-9.16,16.75,2.66,14.26,7.31,37.99,10.22,53.64.73,4.4,1.82,7.65,1.85,11.9.19,11.1-7.07,21.15-16.81,26.11-19.18,10.38-43.06,21.13-61.44,29.36-4.49,2.37-7.62,8.08-7.78,12.94,1.57,25.17,10.45,124.85,11.1,135.8,0,0-.22,6.62,6.78,15.62l-3.09-142.69s-2.7-9.76,7.91-13.06c10.61-3.3,35.55-16.96,68.57-39.16,24-16.14-1.84-76.33-1.84-76.33,0,0-5.32-20.33,12.98-25.55,50.6-14.45,58.03-27.96,64.55-39.78,6.52-11.81,28.17-69.23,28.17-69.23Z"/>
      </g>
      <path class="cls-9" d="M322.05,459.22s-21.84-2.32-22-22.5,23.48-26.29,28.5-26.5,26.5,3.61,26.25,17.65,5.98,27.58-32.75,31.35Z"/>
      <path class="cls-9" d="M361.04,564.65s-14.74-3.6-14.85-17.81,16.53-18.51,20.06-18.66,18.29,3.26,19.94,14.71c1.41,9.79-2.15,23.03-25.15,21.76Z"/>
      <path class="cls-9" d="M612.56,551.44s-18.08-3.91-18.21-19.31c-.14-15.41,20.27-20.07,24.6-20.23s22.43,3.54,24.45,15.95c1.73,10.61-2.64,24.97-30.84,23.59Z"/>
      <path class="cls-5" d="M326.63,442.76s-7.62-.81-7.67-7.85,8.19-9.17,9.94-9.24,9.24,1.26,9.15,6.16,2.09,9.62-11.42,10.93Z"/>
      <path class="cls-9" d="M287.3,533.27s-25.6-1.57-25.76-21.75,24.98-32.79,30-33,37.25,10.96,37,25-2.51,25.99-41.24,29.75Z"/>
      <path class="cls-6" d="M290.32,515.02s-8.18-.5-8.23-6.95,7.98-10.48,9.59-10.55,11.9,3.5,11.83,7.99-.8,8.31-13.18,9.51Z"/>
      <path class="cls-6" d="M367.56,550.85s-2.75-.67-2.77-3.32,3.08-3.45,3.74-3.47,3.41.61,3.71,2.74c.26,1.82-.4,4.29-4.68,4.05Z"/>
      <path class="cls-6" d="M615.72,537.1s-3.51-.76-3.54-3.75c-.03-2.99,3.94-3.9,4.78-3.93s4.36.69,4.75,3.1c.34,2.06-.51,4.85-5.99,4.58Z"/>
    </g>
  </g>
</svg>