<?xml version="1.0" encoding="UTF-8"?>
<svg id="_레이어_2" data-name="레이어 2" xmlns="http://www.w3.org/2000/svg" viewBox="0 0 723.34 630.18">
  <defs>
    <style>
      .cls-1 {
        fill: #feb553;
      }

      .cls-2 {
        fill: none;
        opacity: 1;
        stroke: #633203;
        stroke-linecap: round;
        stroke-width: 25px;
      }

      .cls-2, .cls-3, .cls-4 {
        isolation: isolate;
      }

      .cls-5 {
        fill: #fff;
      }

      .cls-6 {
        fill: #633203;
      }

      .cls-4 {
        fill: #e59336;
        opacity: .97;
      }
    </style>
  </defs>
  <g id="_레이어_2-2" data-name="레이어 2">
    <g class="cls-3">
      <path class="cls-5" d="M251.09,614.82c-14.15,0-23.29-4.05-24.29-4.51l-.19-.09c-.27-.13-27.07-13.32-57.42-26.08-14.71-6.18-29.98-14.31-31.77-27.74-1.58-11.86,8.21-21.03,15.72-26.9,65.21-50.98,68.85-79.84,69.04-82.28l-.69-5.2,4.46-2.5,147.71-105.86,12.46,130.36-.91,2.12c-2.07,4.82-51.31,118.36-100.76,141.12-10.89,5.01-22.11,7.55-33.34,7.55h0Z"/>
      <path class="cls-6" d="M366.17,350.09l10.75,112.5s-49.37,114.92-96.25,136.5c-11.22,5.17-21.39,6.73-29.58,6.73-12.57,0-20.5-3.68-20.5-3.68,0,0-26.93-13.28-57.91-26.3-30.98-13.02-33.47-24.03-14-39.25,74.4-58.17,72.5-89.75,72.5-89.75l135-96.75M381.12,317.24l-25.43,18.22-135,96.75-8.08,5.79.54,8.91c-.54,3.14-6.67,29.45-65.56,75.5-5.33,4.17-21.55,16.85-19.1,35.18,2.4,17.93,20.15,27.67,37.21,34.84,30.13,12.66,56.66,25.72,56.93,25.85l.19.09.19.09c1.93.89,12.33,5.35,28.08,5.35,12.55,0,25.03-2.82,37.11-8.38,13.4-6.17,26.9-17.76,41.26-35.43,10.52-12.95,21.45-29.18,32.5-48.24,18.53-31.99,30.99-60.86,31.51-62.07l1.82-4.23-.44-4.59-10.75-112.5-2.98-31.14h0Z"/>
    </g>
    <g>
      <g class="cls-3">
        <path class="cls-1" d="M498.48,621.18c-96.51,0-126.56-167.1-142.62-259.13l-15.58-2.94c-8.93,9.11-34.36,33.71-72.09,59.21-43.13,29.14-111.01,64.76-189.49,69.03-.37.02-1.36.08-2.85.08-6.03,0-21.62-.94-36.26-9.61-12.84-7.62-28.56-23.49-30.49-55.88v-.19c-.14-3.35-2.79-83.04,29.9-173.4,19.28-53.29,46.91-99.07,82.14-136.06,44.11-46.33,100.2-78.83,166.7-96.62l.32-.08c1.18-.27,29.29-6.58,71.6-6.58,52.43,0,101.73,9.42,146.52,28.01,62.09,25.77,113.2,68.52,151.92,127.09,3.53,4.58,37.94,50.6,51.12,119.71,8.01,42.01,6.43,83.79-4.71,124.18-13.86,50.27-42.61,98.39-85.46,143.01-45.34,47.22-84.82,70.18-120.66,70.18,0,0,0,0,0,0Z"/>
        <path class="cls-6" d="M359.76,18c78.43,0,206.05,22.41,291.11,151.35,0,0,145.01,184.58-38.22,375.41-46.25,48.17-83.7,67.42-114.17,67.42-91.1,0-119.84-172.02-134.83-257.82l-26.5-5s-111,121-259,129c0,0-.83.06-2.3.06-10.63,0-54.56-3.27-57.76-57.02,0,0-12.36-320.96,272.08-397.04,0,0,27.82-6.36,69.59-6.36M359.76,0S359.76,0,359.76,0c-43.31,0-72.39,6.53-73.6,6.81l-.32.07-.32.09c-68.13,18.22-125.62,51.57-170.89,99.11-36.09,37.9-64.38,84.74-84.08,139.21C-2.74,337.28-.03,418.67.1,422.09v.19s.02.19.02.19c2.17,36.33,20.17,54.35,34.89,63.08,15.95,9.46,32.44,10.87,40.85,10.87,1.65,0,2.81-.06,3.4-.1,35.68-1.94,72.18-10.28,108.49-24.78,28.81-11.51,57.58-26.91,85.49-45.77,34.29-23.17,58.7-45.72,70.06-56.94l4.78.9c7.56,43.06,18.82,103.59,38.52,154.42,12.19,31.44,25.88,55.21,41.88,72.68,20.26,22.13,43.82,33.35,70.02,33.35,18.96,0,39.19-6.06,60.1-18.02,21.05-12.03,43.61-30.51,67.05-54.93,43.89-45.71,73.38-95.12,87.64-146.85,11.51-41.73,13.15-84.89,4.88-128.26-13.3-69.76-47.82-116.93-52.62-123.24-39.7-59.96-92.12-103.76-155.81-130.19C463.84,9.66,413.38,0,359.76,0h0Z"/>
      </g>
      <path class="cls-4" d="M337.16,349.36s-111,121-259,129c0,0-17.92,1.34-34.22-8.44,0,0,161.13,3.67,308.54-312.83l-7.15,69.5,20.88,53.5-20.88,45-8.17,24.27Z"/>
      <path class="cls-4" d="M650.87,169.35s145.01,184.58-38.22,375.41c-74.95,78.06-126.8,80.17-163.29,47.48,0,0,315.5-56.44,201.51-422.89Z"/>
      <path class="cls-2" d="M368.16,155.86s-34.75,79.74-18.5,97.5,29.27,29.3,8,51.5c-21.27,22.2-6.73,48.13-6.73,48.13"/>
    </g>
  </g>
</svg>